Hanif_Shallow_5_0_grf.mot
version=1
nRows=53
nColumns=19
inDegrees=yes
endheader
time	right_ground_force_vx	right_ground_force_vy	right_ground_force_vz	right_ground_force_px	right_ground_force_py	right_ground_force_pz	right_ground_torque_x	right_ground_torque_y	right_ground_torque_z	left_ground_force_vx	left_ground_force_vy	left_ground_force_vz	left_ground_force_px	left_ground_force_py	left_ground_force_pz	left_ground_torque_x	left_ground_torque_y	left_ground_torque_z
3.300000	0.568114	297.530000	49.889900	0.187515	0.000000	-1.442080	-19.007300	6.222660	-2.781810	-1.698180	301.329000	-54.778300	0.211246	0.000000	-0.979347	23.042600	-5.842140	4.586490
3.305000	0.671758	295.954000	49.509200	0.186777	0.000000	-1.441350	-19.120300	6.126940	-3.005130	-2.185350	300.839000	-53.721500	0.210443	0.000000	-0.979241	22.984000	-5.825500	4.311900
3.310000	0.849464	295.822000	49.179700	0.187441	0.000000	-1.442310	-18.825500	6.074010	-2.817010	-2.592880	296.698000	-53.062300	0.210710	0.000000	-0.979378	22.718100	-5.752290	4.343570
3.315000	0.827844	295.824000	49.081700	0.187580	0.000000	-1.442700	-18.709600	6.129890	-2.767050	-2.706020	296.339000	-53.087800	0.211827	0.000000	-0.978116	22.319100	-5.659640	4.667550
3.320000	0.713158	294.195000	48.886600	0.187853	0.000000	-1.441820	-18.869100	6.118440	-2.663050	-3.502370	295.476000	-52.075600	0.212234	0.000000	-0.979138	22.574200	-5.620600	4.764780
3.325000	0.723957	293.418000	48.194500	0.188053	0.000000	-1.441830	-18.814900	5.962820	-2.628360	-3.936420	294.773000	-51.785600	0.212455	0.000000	-0.978648	22.386000	-5.577920	4.817010
3.330000	0.245521	291.863000	47.919000	0.188734	0.000000	-1.442770	-18.449300	5.945640	-2.403190	-4.173970	293.378000	-51.107300	0.212695	0.000000	-0.978431	22.222600	-5.566600	4.861920
3.335000	0.567191	291.240000	48.263200	0.188286	0.000000	-1.441700	-18.716400	5.868080	-2.538810	-4.098570	292.629000	-50.696900	0.213426	0.000000	-0.979780	22.559200	-5.503220	5.054720
3.340000	-0.052683	289.686000	47.918400	0.188205	0.000000	-1.440950	-18.846000	5.822650	-2.546700	-4.426570	292.715000	-50.597800	0.214039	0.000000	-0.978997	22.343400	-5.424520	5.227930
3.345000	-0.637783	290.478000	47.560900	0.189307	0.000000	-1.442660	-18.409900	5.790760	-2.234560	-4.421900	290.526000	-50.565800	0.214022	0.000000	-0.980381	22.578800	-5.360610	5.189770
3.350000	-0.239997	287.773000	47.526900	0.188966	0.000000	-1.441590	-18.540300	5.765050	-2.307180	-4.424450	291.841000	-50.516900	0.214104	0.000000	-0.979757	22.499200	-5.432780	5.238620
3.355000	-0.903246	290.302000	47.059900	0.189738	0.000000	-1.441610	-18.709400	5.688330	-2.125950	-4.699590	289.099000	-50.808000	0.213572	0.000000	-0.979577	22.244400	-5.468250	5.069230
3.360000	-1.269110	288.314000	46.976100	0.189722	0.000000	-1.442350	-18.374200	5.646920	-2.108590	-4.780770	287.531000	-50.359200	0.214180	0.000000	-0.979392	22.073100	-5.415630	5.214620
3.365000	-0.173153	290.662000	46.938600	0.190248	0.000000	-1.442510	-18.457500	5.709110	-1.984640	-4.885630	286.704000	-50.201000	0.214293	0.000000	-0.979520	22.048100	-5.346150	5.224910
3.370000	-0.221720	286.702000	46.821100	0.189711	0.000000	-1.441460	-18.508300	5.639800	-2.105110	-5.164890	286.855000	-50.167400	0.214503	0.000000	-0.979116	21.951000	-5.372630	5.295760
3.375000	-0.820977	286.345000	46.888800	0.190581	0.000000	-1.441560	-18.467100	5.580250	-1.846880	-5.213330	286.614000	-50.084600	0.216078	0.000000	-0.979308	21.988500	-5.264800	5.738280
3.380000	-0.479812	286.384000	47.068300	0.190470	0.000000	-1.441590	-18.453300	5.559030	-1.884250	-5.337760	290.084000	-50.755100	0.216270	0.000000	-0.978809	22.112000	-5.346660	5.870410
3.385000	-0.648096	284.499000	46.892400	0.190438	0.000000	-1.441660	-18.315700	5.458860	-1.887510	-6.202070	288.388000	-50.676000	0.217003	0.000000	-0.979771	22.282400	-5.285010	6.067320
3.390000	-0.344265	284.459000	46.438200	0.190356	0.000000	-1.441920	-18.235200	5.463430	-1.920810	-5.943610	289.828000	-50.808000	0.215868	0.000000	-0.978939	22.142900	-5.258280	5.741150
3.395000	-0.492762	284.654000	46.799100	0.191002	0.000000	-1.441600	-18.341500	5.484370	-1.723690	-5.874360	289.750000	-51.447900	0.216667	0.000000	-0.979358	22.258000	-5.274060	5.997520
3.400000	-0.124660	282.443000	46.549000	0.191099	0.000000	-1.441960	-18.091300	5.569800	-1.662970	-5.936430	290.340000	-51.224500	0.216783	0.000000	-0.979080	22.223300	-5.256750	6.031650
3.405000	-0.570786	282.665000	46.198600	0.190350	0.000000	-1.442420	-17.983700	5.606950	-1.878190	-5.283730	290.317000	-51.554500	0.217173	0.000000	-0.978617	22.072200	-5.267000	6.149060
3.410000	-0.214593	283.462000	45.920000	0.190401	0.000000	-1.441910	-18.170200	5.540730	-1.892430	-5.844050	287.871000	-50.478400	0.217491	0.000000	-0.979201	22.069900	-5.259310	6.190230
3.415000	-0.988555	284.118000	45.948400	0.191228	0.000000	-1.442200	-18.145700	5.452640	-1.665540	-5.776160	288.057000	-50.979700	0.217375	0.000000	-0.978924	22.001400	-5.211720	6.161810
3.420000	-1.013610	282.607000	45.996300	0.191175	0.000000	-1.442340	-18.009100	5.503650	-1.653820	-6.093300	285.984000	-50.028000	0.217935	0.000000	-0.979112	21.906200	-5.184900	6.274110
3.425000	-0.891124	283.668000	45.490600	0.191819	0.000000	-1.441940	-18.189400	5.458850	-1.495770	-6.585700	285.335000	-50.086100	0.218333	0.000000	-0.978556	21.710700	-5.162220	6.385740
3.430000	-1.056780	281.666000	45.762100	0.191431	0.000000	-1.442250	-17.975700	5.348290	-1.597350	-6.923680	283.533000	-50.018000	0.217821	0.000000	-0.979340	21.803100	-5.054930	6.194930
3.435000	-1.161970	282.298000	45.670300	0.190944	0.000000	-1.442360	-17.985200	5.424590	-1.733780	-7.777160	281.830000	-48.881600	0.218217	0.000000	-0.979185	21.654100	-5.140720	6.282930
3.440000	-1.388860	280.891000	45.424800	0.190752	0.000000	-1.442170	-17.954900	5.502100	-1.761460	-7.678590	281.089000	-48.304200	0.219075	0.000000	-0.979043	21.554800	-5.082300	6.493880
3.445000	-0.710203	280.336000	45.532600	0.191947	0.000000	-1.441570	-18.074200	5.387740	-1.434640	-7.950050	279.596000	-48.293100	0.219064	0.000000	-0.979772	21.651200	-5.015910	6.461040
3.450000	-0.337188	280.069000	44.655500	0.191350	0.000000	-1.442380	-17.825400	5.463500	-1.609760	-7.919670	280.353000	-48.135800	0.219341	0.000000	-0.979354	21.591000	-5.013530	6.546760
3.455000	-0.470139	281.523000	44.587000	0.191320	0.000000	-1.441850	-18.067500	5.423710	-1.641200	-7.929850	281.648000	-47.942000	0.219477	0.000000	-0.978555	21.462900	-4.966800	6.592090
3.460000	-1.201030	283.115000	44.580400	0.190479	0.000000	-1.442120	-18.108800	5.563600	-1.874320	-7.936460	279.318000	-47.708100	0.219724	0.000000	-0.979887	21.662200	-5.005880	6.629230
3.465000	-1.136370	281.254000	44.855900	0.190814	0.000000	-1.441100	-18.273300	5.512720	-1.758360	-7.397600	282.377000	-47.459000	0.219975	0.000000	-0.979582	21.794900	-4.971770	6.730490
3.470000	-0.944268	284.508000	44.923400	0.191288	0.000000	-1.441490	-18.369500	5.485080	-1.664720	-7.151570	280.319000	-47.797700	0.219303	0.000000	-0.979557	21.624600	-4.969290	6.508880
3.475000	-0.377823	286.320000	45.101600	0.191369	0.000000	-1.442450	-18.202300	5.435330	-1.672540	-7.380650	281.474000	-47.958000	0.219735	0.000000	-0.979379	21.668300	-4.963030	6.657700
3.480000	-0.324683	288.101000	44.777900	0.191715	0.000000	-1.441580	-18.565200	5.514630	-1.584150	-6.874440	284.231000	-47.886600	0.220148	0.000000	-0.978867	21.720700	-5.003670	6.820020
3.485000	-0.562809	291.091000	45.301300	0.190779	0.000000	-1.441540	-18.773600	5.592790	-1.873060	-7.008100	283.939000	-47.456400	0.220285	0.000000	-0.979387	21.849600	-5.001980	6.846050
3.490000	-0.180415	292.921000	45.896300	0.192183	0.000000	-1.442560	-18.586200	5.583000	-1.469330	-6.454810	285.775000	-48.092100	0.219379	0.000000	-0.979235	21.932300	-5.049180	6.627300
3.495000	0.485143	295.008000	46.441900	0.191627	0.000000	-1.441690	-18.962400	5.722200	-1.635480	-6.783180	286.466000	-48.105600	0.218909	0.000000	-0.979022	21.928400	-4.932630	6.484390
3.500000	0.311510	298.853000	46.301700	0.192062	0.000000	-1.442090	-19.095500	5.683540	-1.551750	-7.051790	284.796000	-48.340100	0.219376	0.000000	-0.979792	22.032900	-5.094370	6.633890
3.505000	0.220386	300.406000	46.651300	0.192016	0.000000	-1.440530	-19.664200	5.870140	-1.546930	-6.729320	289.813000	-48.922300	0.219699	0.000000	-0.980159	22.512400	-5.015950	6.806190
3.510000	0.559933	304.542000	47.029400	0.192014	0.000000	-1.441010	-19.783100	5.971370	-1.573420	-6.704690	292.143000	-49.178300	0.220422	0.000000	-0.980278	22.726800	-5.032490	7.069470
3.515000	0.525524	308.678000	47.489400	0.192355	0.000000	-1.441490	-19.903000	6.032370	-1.492790	-6.201020	295.306000	-49.754000	0.219825	0.000000	-0.980556	23.039000	-5.018120	6.947140
3.520000	0.728955	310.645000	47.989300	0.192267	0.000000	-1.439720	-20.574800	6.142860	-1.518140	-6.378770	297.839000	-50.714300	0.220427	0.000000	-0.979913	23.047200	-4.985040	7.192760
3.525000	0.900513	317.815000	48.666800	0.192905	0.000000	-1.441280	-20.552500	6.284950	-1.354420	-6.296030	299.099000	-50.818000	0.219747	0.000000	-0.980924	23.445700	-5.101870	7.026970
3.530000	1.478560	319.757000	49.621100	0.192704	0.000000	-1.440960	-20.768200	6.427800	-1.406610	-6.193970	300.832000	-50.808500	0.219961	0.000000	-0.981464	23.742300	-5.197190	7.135970
3.535000	2.235940	327.164000	50.255800	0.192521	0.000000	-1.440850	-21.273500	6.516670	-1.526070	-6.030270	306.571000	-51.456200	0.219937	0.000000	-0.981056	24.060400	-5.138790	7.225870
3.540000	3.026100	332.989000	51.200300	0.192510	0.000000	-1.441050	-21.571000	6.698900	-1.553110	-6.079090	309.874000	-51.916700	0.219715	0.000000	-0.981352	24.410300	-5.182510	7.228800
3.545000	3.317120	336.375000	52.722300	0.192745	0.000000	-1.440570	-21.949600	6.671470	-1.488760	-6.532510	312.519000	-53.108100	0.219694	0.000000	-0.981653	24.721300	-5.179590	7.300080
3.550000	3.464820	341.679000	53.881000	0.191934	0.000000	-1.441460	-21.989000	6.909410	-1.770200	-6.360480	320.266000	-54.705600	0.220284	0.000000	-0.981522	25.286000	-5.351020	7.685080
3.555000	3.477750	346.884000	55.232200	0.192062	0.000000	-1.440570	-22.633900	7.080660	-1.732260	-6.143530	323.587000	-56.200500	0.221061	0.000000	-0.981662	25.587500	-5.360070	8.035460
3.560000	3.950440	355.320000	55.539600	0.193004	0.000000	-1.441050	-23.006000	7.129290	-1.472370	-5.792430	330.128000	-58.245000	0.220185	0.000000	-0.981420	26.012200	-5.409370	7.905660
